<svg width="40" height="40" viewBox="0 0 40 40" fill="none" xmlns="http://www.w3.org/2000/svg">
<path d="M0 20C0 8.95431 8.95431 0 20 0C31.0457 0 40 8.95431 40 20C40 31.0457 31.0457 40 20 40C8.95431 40 0 31.0457 0 20Z" fill="#DEFBEA"/>
<path d="M20 11.25C20.4142 11.25 20.75 11.5858 20.75 12V19.25H28L28.0771 19.2539C28.4551 19.2925 28.75 19.6118 28.75 20C28.75 20.3882 28.4551 20.7075 28.0771 20.7461L28 20.75H20.75V28L20.7461 28.0771C20.7075 28.4551 20.3882 28.75 20 28.75C19.6118 28.75 19.2925 28.4551 19.2539 28.0771L19.25 28V20.75H12C11.5858 20.75 11.25 20.4142 11.25 20C11.25 19.5858 11.5858 19.25 12 19.25H19.25V12C19.25 11.5858 19.5858 11.25 20 11.25Z" fill="#00CC51"/>
</svg>
