<svg width="24" height="24" viewBox="0 0 24 24" fill="none" xmlns="http://www.w3.org/2000/svg">
<path fill-rule="evenodd" clip-rule="evenodd" d="M15.2794 20.4285C15.2794 21.8486 14.0351 22.9999 12.5 22.9999C11.0264 22.9999 9.82064 21.9389 9.72653 20.5975L9.72062 20.4285H15.2794ZM12.4897 1C16.5791 1 19.1746 3.62865 19.8942 7.85115L20.8879 14.5203C21.5877 16.9881 23 16.1455 23 17.4988C23 18.36 22.0777 18.7636 20.2332 18.7096L19.9634 18.6988H5.03657L4.76679 18.7096C2.92226 18.7636 2 18.36 2 17.4988C2 16.1939 3.31321 16.9308 4.03447 14.7723L4.11207 14.5203C4.11207 14.5203 4.88315 9.49453 5.10581 7.85115C5.80692 3.73692 8.28904 1.13585 12.1987 1.00517L12.4897 1Z" fill="white"/>
<circle cx="20" cy="4" r="4" fill="#FE835C"/>
</svg>
