<svg width="21" height="20" viewBox="0 0 21 20" fill="none" xmlns="http://www.w3.org/2000/svg">
<path d="M10.499 2.5C14.6412 2.5 17.999 5.85786 17.999 10C17.999 14.1421 14.6412 17.5 10.499 17.5C6.35689 17.5 2.99902 14.1421 2.99902 10C2.99902 5.85786 6.35689 2.5 10.499 2.5ZM14.3652 6.85938C14.0337 6.58347 13.5517 6.60883 13.25 6.9043L13.1914 6.9668L10.1934 10.5645C9.90453 10.911 9.74196 11.1027 9.6123 11.2207C9.61076 11.2221 9.60891 11.2233 9.60742 11.2246C9.60594 11.2235 9.60407 11.2228 9.60254 11.2217C9.46271 11.1159 9.283 10.9393 8.96387 10.6201L7.75488 9.41113C7.42945 9.0857 6.90161 9.0857 6.57617 9.41113C6.25095 9.73653 6.25095 10.2635 6.57617 10.5889L7.78516 11.7988C8.06934 12.083 8.34309 12.359 8.59668 12.5508C8.83532 12.7312 9.13888 12.9026 9.51758 12.9287L9.68457 12.9307L9.85059 12.9131C10.2257 12.8529 10.5129 12.6555 10.7344 12.4541C10.9695 12.2402 11.2164 11.9405 11.4736 11.6318L14.4727 8.0332L14.5234 7.96484C14.7594 7.61473 14.6966 7.13552 14.3652 6.85938Z" fill="#00CC51"/>
</svg>
