<svg width="21" height="20" viewBox="0 0 21 20" fill="none" xmlns="http://www.w3.org/2000/svg">
<path d="M10.501 2.5C14.6431 2.5 18.001 5.85786 18.001 10C18.001 14.1421 14.6431 17.5 10.501 17.5C6.35884 17.5 3.00098 14.1421 3.00098 10C3.00098 5.85786 6.35884 2.5 10.501 2.5ZM14.4238 6.07715C14.0984 5.75196 13.5705 5.75277 13.2451 6.07812L10.501 8.82227L7.75684 6.07812C7.43148 5.75277 6.90358 5.75196 6.57812 6.07715C6.2528 6.40247 6.25302 6.9304 6.57812 7.25586L9.32227 10L6.5791 12.7441C6.25366 13.0696 6.25366 13.5974 6.5791 13.9229C6.90448 14.248 7.43146 14.248 7.75684 13.9229L10.501 11.1787L13.2451 13.9229C13.5705 14.248 14.0975 14.248 14.4229 13.9229C14.7483 13.5974 14.7483 13.0696 14.4229 12.7441L11.6787 10L14.4238 7.25586C14.7489 6.9304 14.7492 6.40247 14.4238 6.07715Z" fill="#EF4444"/>
</svg>
