<svg width="24" height="24" viewBox="0 0 24 24" fill="none" xmlns="http://www.w3.org/2000/svg">
<path d="M18.1873 18.1872C17.8944 18.4801 17.4196 18.4801 17.1267 18.1872L12.0001 13.0607L6.87362 18.1872L6.8163 18.239C6.52173 18.4789 6.08743 18.4617 5.81296 18.1872C5.53848 17.9127 5.52121 17.4784 5.76117 17.1838L5.81296 17.1265L10.9395 12L5.81296 6.87347L5.76117 6.81616C5.52121 6.52159 5.53848 6.08729 5.81296 5.81281C6.08743 5.53834 6.52173 5.52107 6.81631 5.76102L6.87362 5.81281L12.0001 10.9393L17.1267 5.81282C17.4196 5.51992 17.8944 5.51992 18.1873 5.81282C18.4802 6.10571 18.4802 6.58058 18.1873 6.87348L13.0608 12L18.1873 17.1265C18.4802 17.4194 18.4802 17.8943 18.1873 18.1872Z" fill="#191B1C"/>
</svg>
