<svg width="16" height="16" viewBox="0 0 16 16" fill="none" xmlns="http://www.w3.org/2000/svg">
<rect width="16" height="16" rx="8" fill="#F5F6F7"/>
<path d="M5.2892 5.28997C5.48447 5.09471 5.80105 5.09471 5.99631 5.28997L7.99955 7.29321L10.0035 5.28928L10.0815 5.22506C10.2755 5.097 10.5397 5.11858 10.7106 5.28928C10.8814 5.46011 10.9029 5.72429 10.7748 5.91836L10.7106 5.99639L8.70666 8.00032L10.7106 10.0042L10.7748 10.0823C10.9029 10.2763 10.8814 10.5405 10.7106 10.7114C10.5397 10.8821 10.2755 10.9036 10.0815 10.7756L10.0035 10.7114L7.99955 8.70743L5.99631 10.7107C5.80105 10.9059 5.48447 10.9059 5.2892 10.7107C5.09409 10.5154 5.09399 10.1988 5.2892 10.0036L7.29244 8.00032L5.2892 5.99708C5.09399 5.80187 5.09409 5.48525 5.2892 5.28997Z" fill="#A6ABAF"/>
</svg>
