<svg width="24" height="24" viewBox="0 0 24 24" fill="none" xmlns="http://www.w3.org/2000/svg">
<path d="M8.64303 5C6.0859 5 4 6.97725 4 9.40118C4 11.5818 5.78495 13.7994 7.48317 15.5695C9.18139 17.3395 10.875 18.6319 10.875 18.6319C10.8801 18.6358 10.8854 18.6396 10.8906 18.6433C11.1648 18.8396 11.5088 18.9672 11.8822 18.9908C11.9211 18.9974 11.9605 19.0005 12 18.9999C12.0391 19.0004 12.0781 18.9974 12.1166 18.9908C12.1186 18.9905 12.1206 18.9901 12.1226 18.9897C12.4941 18.9652 12.8364 18.8387 13.1094 18.6433C13.1146 18.6396 13.1199 18.6358 13.125 18.6319C13.125 18.6319 14.8186 17.3395 16.5168 15.5695C18.215 13.7994 20 11.5818 20 9.40118C20 6.97725 17.9141 5 15.357 5C13.7483 5 12.6092 5.83915 12 6.43326C11.3908 5.83915 10.2517 5 8.64303 5Z" fill="white"/>
</svg>
