<svg width="24" height="24" viewBox="0 0 24 24" fill="none" xmlns="http://www.w3.org/2000/svg">
<path d="M8.64303 5C6.0859 5 4 6.97725 4 9.40118C4 11.5818 5.78495 13.7994 7.48317 15.5695C9.18139 17.3395 10.875 18.6319 10.875 18.6319C10.8801 18.6358 10.8854 18.6396 10.8906 18.6433C11.1648 18.8396 11.5088 18.9672 11.8822 18.9908C11.9211 18.9974 11.9605 19.0005 12 18.9999C12.0391 19.0004 12.0781 18.9974 12.1166 18.9908C12.1186 18.9905 12.1206 18.9901 12.1226 18.9897C12.4941 18.9652 12.8364 18.8387 13.1094 18.6433C13.1146 18.6396 13.1199 18.6358 13.125 18.6319C13.125 18.6319 14.8186 17.3395 16.5168 15.5695C18.215 13.7994 20 11.5818 20 9.40118C20 6.97725 17.9141 5 15.357 5C13.7483 5 12.6092 5.83915 12 6.43326C11.3908 5.83915 10.2517 5 8.64303 5ZM8.64303 6.16666C10.3238 6.16666 11.3464 7.47475 11.4483 7.61018C11.5004 7.70524 11.5791 7.78486 11.6758 7.84033C11.7725 7.8958 11.8834 7.92496 11.9964 7.92463C12.0012 7.92468 12.006 7.92468 12.0108 7.92463C12.0156 7.9243 12.0204 7.92392 12.0252 7.92349C12.0409 7.92292 12.0565 7.92178 12.0721 7.92007C12.1721 7.90967 12.2679 7.87619 12.3511 7.82256C12.4343 7.76893 12.5023 7.69679 12.5493 7.61246C12.6461 7.48353 13.6715 6.16666 15.357 6.16666C17.2491 6.16666 18.7692 7.60764 18.7692 9.40118C18.7692 10.9195 17.2306 13.0909 15.6058 14.7845C13.9864 16.4723 12.374 17.7052 12.363 17.7136C12.2549 17.7899 12.1348 17.8333 12 17.8333C11.8652 17.8333 11.7451 17.7899 11.637 17.7136C11.626 17.7052 10.0136 16.4723 8.39423 14.7845C6.76937 13.0909 5.23077 10.9195 5.23077 9.40118C5.23077 7.60764 6.75093 6.16666 8.64303 6.16666Z" fill="white"/>
</svg>
