<svg width="24" height="24" viewBox="0 0 24 24" fill="none" xmlns="http://www.w3.org/2000/svg">
<path d="M5 12.4375C5 11.7126 5.6042 11.125 6.34952 11.125C7.09484 11.125 7.69904 11.7126 7.69904 12.4375V17.6875C7.69904 18.4124 7.09484 19 6.34952 19C5.6042 19 5 18.4124 5 17.6875V12.4375Z" fill="#50BF50"/>
<path d="M8.59872 12.2917V17.0434C8.59872 17.7063 8.98379 18.3123 9.59339 18.6087L9.63823 18.6305C10.1379 18.8735 10.6889 19 11.2476 19H16.1204C16.9781 19 17.7166 18.4112 17.8848 17.5932L18.9644 12.3432C19.1871 11.2603 18.3355 10.25 17.2 10.25H13.9968V6.75C13.9968 5.7835 13.1912 5 12.1974 5C11.7006 5 11.2978 5.39175 11.2978 5.875V6.45833C11.2978 7.21563 11.0452 7.9525 10.578 8.55833L9.31847 10.1917C8.85127 10.7975 8.59872 11.5344 8.59872 12.2917Z" fill="#50BF50"/>
</svg>
