<svg width="24" height="24" viewBox="0 0 24 24" fill="none" xmlns="http://www.w3.org/2000/svg">
<path d="M10.7518 4.77635C11.1097 3.74122 12.6681 3.74122 13.026 4.77635L14.3047 8.47484C14.4648 8.93777 14.9238 9.2512 15.4418 9.2512H19.5799C20.7381 9.2512 21.2196 10.644 20.2827 11.2837L16.9348 13.5695C16.5158 13.8556 16.3405 14.3627 16.5005 14.8257L17.7793 18.5242C18.1372 19.5593 16.8765 20.4201 15.9395 19.7803L12.5916 17.4945C12.1726 17.2084 11.6052 17.2084 11.1861 17.4945L7.83832 19.7803C6.90133 20.4201 5.64062 19.5593 5.99851 18.5242L7.27727 14.8257C7.43733 14.3627 7.26199 13.8556 6.84295 13.5695L3.49513 11.2837C2.55814 10.644 3.03969 9.2512 4.19787 9.2512H8.33601C8.85396 9.2512 9.31301 8.93777 9.47307 8.47484L10.7518 4.77635Z" fill="#00CC51"/>
</svg>
