<svg width="328" height="48" viewBox="0 0 328 48" fill="none" xmlns="http://www.w3.org/2000/svg">
<path d="M0 12C0 5.37258 5.37258 0 12 0H316C322.627 0 328 5.37258 328 12V36C328 42.6274 322.627 48 316 48H12C5.37259 48 0 42.6274 0 36V12Z" fill="#FAE300"/>
<path d="M104 17.749C99.6777 17.749 96.1823 20.516 96.1823 23.9301C96.1823 26.1615 97.6675 28.114 99.8955 29.1879C99.7308 29.7987 99.3008 31.3998 99.2171 31.7429C99.111 32.1668 99.3706 32.1613 99.5437 32.0497L102.556 30.0051C103.037 30.0761 103.522 30.1116 104.008 30.1111C108.33 30.1111 111.825 27.3442 111.825 23.9301C111.825 20.516 108.322 17.749 104.008 17.749" fill="#391B1B"/>
<path d="M129.156 18.6875H130.875V24.0781H131.016L135.75 18.6875H137.906L133.344 23.7812L137.922 30H135.844L132.203 24.9531L130.875 26.4844V30H129.156V18.6875ZM138.797 27.6094C138.792 26.7292 139.086 26.1016 139.68 25.7266C140.279 25.3516 141.042 25.1302 141.969 25.0625C143.172 24.9948 143.914 24.9557 144.195 24.9453L144.188 24.2656C144.193 23.7812 144.047 23.4089 143.75 23.1484C143.458 22.8828 143.031 22.75 142.469 22.75C141.995 22.75 141.607 22.849 141.305 23.0469C141.003 23.2396 140.807 23.5 140.719 23.8281H139.062C139.115 23.3594 139.289 22.9427 139.586 22.5781C139.883 22.2083 140.284 21.9219 140.789 21.7188C141.294 21.5104 141.875 21.4062 142.531 21.4062C143.068 21.4062 143.583 21.4896 144.078 21.6562C144.578 21.8177 145 22.1198 145.344 22.5625C145.688 23 145.859 23.599 145.859 24.3594V30H144.234V28.8438H144.172C143.979 29.2135 143.672 29.5312 143.25 29.7969C142.828 30.0573 142.297 30.1875 141.656 30.1875C141.115 30.1875 140.625 30.0859 140.188 29.8828C139.755 29.6797 139.414 29.3854 139.164 29C138.919 28.6094 138.797 28.1458 138.797 27.6094ZM140.422 27.625C140.422 28.0208 140.568 28.3255 140.859 28.5391C141.156 28.7474 141.547 28.8542 142.031 28.8594C142.469 28.8594 142.852 28.7708 143.18 28.5938C143.508 28.4167 143.76 28.1823 143.938 27.8906C144.115 27.5938 144.203 27.276 144.203 26.9375L144.195 26.1641L142.203 26.2969C141.635 26.3385 141.195 26.4688 140.883 26.6875C140.576 26.9062 140.422 27.2188 140.422 27.625ZM147.875 18.6875H149.547V25.0938H149.688L153.047 21.5156H155.047L151.617 25.1562L155.281 30H153.234L150.352 26.1875L149.547 26.9844V30H147.875V18.6875ZM155.969 27.6094C155.964 26.7292 156.258 26.1016 156.852 25.7266C157.451 25.3516 158.214 25.1302 159.141 25.0625C160.344 24.9948 161.086 24.9557 161.367 24.9453L161.359 24.2656C161.365 23.7812 161.219 23.4089 160.922 23.1484C160.63 22.8828 160.203 22.75 159.641 22.75C159.167 22.75 158.779 22.849 158.477 23.0469C158.174 23.2396 157.979 23.5 157.891 23.8281H156.234C156.286 23.3594 156.461 22.9427 156.758 22.5781C157.055 22.2083 157.456 21.9219 157.961 21.7188C158.466 21.5104 159.047 21.4062 159.703 21.4062C160.24 21.4062 160.755 21.4896 161.25 21.6562C161.75 21.8177 162.172 22.1198 162.516 22.5625C162.859 23 163.031 23.599 163.031 24.3594V30H161.406V28.8438H161.344C161.151 29.2135 160.844 29.5312 160.422 29.7969C160 30.0573 159.469 30.1875 158.828 30.1875C158.286 30.1875 157.797 30.0859 157.359 29.8828C156.927 29.6797 156.586 29.3854 156.336 29C156.091 28.6094 155.969 28.1458 155.969 27.6094ZM157.594 27.625C157.594 28.0208 157.74 28.3255 158.031 28.5391C158.328 28.7474 158.719 28.8542 159.203 28.8594C159.641 28.8594 160.023 28.7708 160.352 28.5938C160.68 28.4167 160.932 28.1823 161.109 27.8906C161.286 27.5938 161.375 27.276 161.375 26.9375L161.367 26.1641L159.375 26.2969C158.807 26.3385 158.367 26.4688 158.055 26.6875C157.747 26.9062 157.594 27.2188 157.594 27.625ZM168.641 30.1719C167.849 30.1719 167.151 29.9896 166.547 29.625C165.948 29.2604 165.484 28.75 165.156 28.0938C164.833 27.4323 164.672 26.6667 164.672 25.7969C164.672 24.9271 164.833 24.1615 165.156 23.5C165.484 22.8333 165.948 22.3177 166.547 21.9531C167.151 21.5885 167.849 21.4062 168.641 21.4062C169.427 21.4062 170.12 21.5885 170.719 21.9531C171.318 22.3177 171.779 22.8333 172.102 23.5C172.43 24.1615 172.594 24.9271 172.594 25.7969C172.594 26.6667 172.43 27.4323 172.102 28.0938C171.779 28.75 171.318 29.2604 170.719 29.625C170.12 29.9896 169.427 30.1719 168.641 30.1719ZM166.344 25.7969C166.344 26.3542 166.43 26.8594 166.602 27.3125C166.773 27.7604 167.031 28.1172 167.375 28.3828C167.719 28.6484 168.141 28.7812 168.641 28.7812C169.13 28.7812 169.544 28.6484 169.883 28.3828C170.227 28.1172 170.482 27.7604 170.648 27.3125C170.82 26.8594 170.906 26.3542 170.906 25.7969C170.906 25.2396 170.82 24.7344 170.648 24.2812C170.482 23.8229 170.227 23.4583 169.883 23.1875C169.544 22.9167 169.13 22.7812 168.641 22.7812C168.141 22.7812 167.719 22.9167 167.375 23.1875C167.031 23.4583 166.773 23.8229 166.602 24.2812C166.43 24.7344 166.344 25.2396 166.344 25.7969ZM186.547 29.6562H173.734V28.4062H179.375V25.9531H175.297V21.5H183.516V19.5312H175.266V18.3125H184.984V22.6875H176.766V24.7344H185.312V25.9531H180.844V28.4062H186.547V29.6562ZM204.281 29.6562H191.469V28.4062H197.109V25.9531H193.031V21.5H201.25V19.5312H193V18.3125H202.719V22.6875H194.5V24.7344H203.047V25.9531H198.578V28.4062H204.281V29.6562ZM216.391 20.25C216.391 21.0677 216.38 21.776 216.359 22.375C216.344 22.9688 216.299 23.6589 216.227 24.4453C216.154 25.2318 216.036 26.0885 215.875 27.0156L214.359 26.875C214.531 26.0052 214.659 25.1849 214.742 24.4141C214.826 23.6432 214.875 22.9583 214.891 22.3594C214.911 21.7604 214.922 21.0573 214.922 20.25V19.9688H206.672V18.75H216.391V20.25ZM205.297 28.1094H218.062V29.3438H205.297V28.1094ZM230.734 27.5156H229.25V17.3438H230.734V27.5156ZM219.406 21.75C219.406 21.0885 219.57 20.4948 219.898 19.9688C220.227 19.4427 220.674 19.0312 221.242 18.7344C221.81 18.4323 222.443 18.2812 223.141 18.2812C223.839 18.2812 224.469 18.4323 225.031 18.7344C225.599 19.0312 226.044 19.4427 226.367 19.9688C226.695 20.4948 226.859 21.0885 226.859 21.75C226.859 22.4219 226.695 23.0234 226.367 23.5547C226.044 24.0807 225.599 24.4922 225.031 24.7891C224.469 25.0859 223.839 25.2344 223.141 25.2344C222.443 25.2344 221.81 25.0859 221.242 24.7891C220.674 24.4922 220.227 24.0807 219.898 23.5547C219.57 23.0234 219.406 22.4219 219.406 21.75ZM220.859 21.75C220.859 22.1823 220.956 22.5651 221.148 22.8984C221.346 23.2266 221.62 23.4818 221.969 23.6641C222.318 23.8464 222.708 23.9375 223.141 23.9375C223.568 23.9375 223.953 23.8464 224.297 23.6641C224.641 23.4818 224.911 23.2266 225.109 22.8984C225.307 22.5651 225.406 22.1823 225.406 21.75C225.406 21.3281 225.307 20.9531 225.109 20.625C224.911 20.2917 224.641 20.0339 224.297 19.8516C223.953 19.6693 223.568 19.5781 223.141 19.5781C222.708 19.5781 222.318 19.6693 221.969 19.8516C221.62 20.0339 221.346 20.2917 221.148 20.625C220.956 20.9531 220.859 21.3281 220.859 21.75ZM221.578 26.4844H223.078V29.8281H231.156V31.0312H221.578V26.4844Z" fill="#391B1B"/>
</svg>
