<svg width="328" height="48" viewBox="0 0 328 48" fill="none" xmlns="http://www.w3.org/2000/svg">
<path d="M12 0.5H316C322.351 0.5 327.5 5.64873 327.5 12V36C327.5 42.3513 322.351 47.5 316 47.5H12C5.64873 47.5 0.5 42.3513 0.5 36V12C0.5 5.64873 5.64873 0.5 12 0.5Z" fill="white"/>
<path d="M12 0.5H316C322.351 0.5 327.5 5.64873 327.5 12V36C327.5 42.3513 322.351 47.5 316 47.5H12C5.64873 47.5 0.5 42.3513 0.5 36V12C0.5 5.64873 5.64873 0.5 12 0.5Z" stroke="#EDF0F3"/>
<path fill-rule="evenodd" clip-rule="evenodd" d="M111.436 24.2659C111.436 23.7442 111.39 23.2235 111.298 22.71H104.13V25.6493H108.226C108.143 26.1158 107.965 26.5604 107.703 26.956C107.442 27.3516 107.103 27.6898 106.706 27.9502V29.8599H109.168C110.607 28.5369 111.436 26.5869 111.436 24.2717" fill="#3E82F1"/>
<path fill-rule="evenodd" clip-rule="evenodd" d="M104.13 31.6953C106.186 31.6953 107.907 31.0165 109.168 29.8546L106.709 27.9478C105.937 28.4416 105.035 28.6939 104.119 28.6725C103.17 28.6604 102.249 28.3514 101.485 27.789C100.721 27.2267 100.153 26.4393 99.8608 25.5376H97.3188V27.5077C97.9521 28.767 98.9234 29.8256 100.124 30.5651C101.325 31.3046 102.708 31.6959 104.119 31.6953" fill="#32A753"/>
<path fill-rule="evenodd" clip-rule="evenodd" d="M99.8723 25.5376C99.557 24.6047 99.557 23.5943 99.8723 22.6615V20.6942H97.3303C96.7965 21.7532 96.5184 22.9225 96.5184 24.1082C96.5184 25.2939 96.7965 26.4631 97.3303 27.5221L99.8723 25.5376Z" fill="#F9BB00"/>
<path fill-rule="evenodd" clip-rule="evenodd" d="M104.13 19.512C105.214 19.4977 106.26 19.9111 107.041 20.6625L109.223 18.4824C107.846 17.1888 106.02 16.4786 104.13 16.5008C102.719 16.5001 101.336 16.8917 100.135 17.6318C98.9341 18.3718 97.963 19.4312 97.3304 20.6912L99.8724 22.6584C100.165 21.7568 100.733 20.9694 101.497 20.407C102.26 19.8447 103.181 19.5357 104.13 19.5235" fill="#E74133"/>
<path d="M136.797 22.2656C136.583 21.5833 136.224 21.0521 135.719 20.6719C135.214 20.2917 134.594 20.1042 133.859 20.1094C133.219 20.1042 132.643 20.2682 132.133 20.6016C131.622 20.9297 131.219 21.4141 130.922 22.0547C130.63 22.6901 130.484 23.4531 130.484 24.3438C130.484 25.2344 130.63 26 130.922 26.6406C131.219 27.276 131.628 27.7604 132.148 28.0938C132.669 28.4219 133.266 28.5833 133.938 28.5781C134.536 28.5781 135.062 28.4583 135.516 28.2188C135.969 27.9792 136.32 27.638 136.57 27.1953C136.826 26.7474 136.958 26.224 136.969 25.625H134.188V24.2031H138.641V25.4844C138.641 26.4219 138.44 27.2448 138.039 27.9531C137.638 28.6562 137.081 29.2005 136.367 29.5859C135.654 29.9661 134.839 30.1562 133.922 30.1562C132.906 30.1562 132.01 29.9219 131.234 29.4531C130.458 28.9792 129.854 28.3047 129.422 27.4297C128.995 26.5495 128.781 25.5208 128.781 24.3438C128.781 23.1667 128.997 22.1406 129.43 21.2656C129.862 20.3854 130.461 19.7109 131.227 19.2422C131.997 18.7682 132.87 18.5312 133.844 18.5312C134.651 18.5312 135.388 18.6901 136.055 19.0078C136.727 19.3203 137.281 19.7604 137.719 20.3281C138.156 20.8906 138.438 21.5365 138.562 22.2656H136.797ZM144.078 30.1719C143.286 30.1719 142.589 29.9896 141.984 29.625C141.385 29.2604 140.922 28.75 140.594 28.0938C140.271 27.4323 140.109 26.6667 140.109 25.7969C140.109 24.9271 140.271 24.1615 140.594 23.5C140.922 22.8333 141.385 22.3177 141.984 21.9531C142.589 21.5885 143.286 21.4062 144.078 21.4062C144.865 21.4062 145.557 21.5885 146.156 21.9531C146.755 22.3177 147.216 22.8333 147.539 23.5C147.867 24.1615 148.031 24.9271 148.031 25.7969C148.031 26.6667 147.867 27.4323 147.539 28.0938C147.216 28.75 146.755 29.2604 146.156 29.625C145.557 29.9896 144.865 30.1719 144.078 30.1719ZM141.781 25.7969C141.781 26.3542 141.867 26.8594 142.039 27.3125C142.211 27.7604 142.469 28.1172 142.812 28.3828C143.156 28.6484 143.578 28.7812 144.078 28.7812C144.568 28.7812 144.982 28.6484 145.32 28.3828C145.664 28.1172 145.919 27.7604 146.086 27.3125C146.258 26.8594 146.344 26.3542 146.344 25.7969C146.344 25.2396 146.258 24.7344 146.086 24.2812C145.919 23.8229 145.664 23.4583 145.32 23.1875C144.982 22.9167 144.568 22.7812 144.078 22.7812C143.578 22.7812 143.156 22.9167 142.812 23.1875C142.469 23.4583 142.211 23.8229 142.039 24.2812C141.867 24.7344 141.781 25.2396 141.781 25.7969ZM153.266 30.1719C152.474 30.1719 151.776 29.9896 151.172 29.625C150.573 29.2604 150.109 28.75 149.781 28.0938C149.458 27.4323 149.297 26.6667 149.297 25.7969C149.297 24.9271 149.458 24.1615 149.781 23.5C150.109 22.8333 150.573 22.3177 151.172 21.9531C151.776 21.5885 152.474 21.4062 153.266 21.4062C154.052 21.4062 154.745 21.5885 155.344 21.9531C155.943 22.3177 156.404 22.8333 156.727 23.5C157.055 24.1615 157.219 24.9271 157.219 25.7969C157.219 26.6667 157.055 27.4323 156.727 28.0938C156.404 28.75 155.943 29.2604 155.344 29.625C154.745 29.9896 154.052 30.1719 153.266 30.1719ZM150.969 25.7969C150.969 26.3542 151.055 26.8594 151.227 27.3125C151.398 27.7604 151.656 28.1172 152 28.3828C152.344 28.6484 152.766 28.7812 153.266 28.7812C153.755 28.7812 154.169 28.6484 154.508 28.3828C154.852 28.1172 155.107 27.7604 155.273 27.3125C155.445 26.8594 155.531 26.3542 155.531 25.7969C155.531 25.2396 155.445 24.7344 155.273 24.2812C155.107 23.8229 154.852 23.4583 154.508 23.1875C154.169 22.9167 153.755 22.7812 153.266 22.7812C152.766 22.7812 152.344 22.9167 152 23.1875C151.656 23.4583 151.398 23.8229 151.227 24.2812C151.055 24.7344 150.969 25.2396 150.969 25.7969ZM162.422 33.3594C161.714 33.3594 161.089 33.2578 160.547 33.0547C160.005 32.8568 159.576 32.5677 159.258 32.1875C158.945 31.8073 158.766 31.3542 158.719 30.8281H160.422C160.5 31.2188 160.711 31.513 161.055 31.7109C161.404 31.9141 161.854 32.0156 162.406 32.0156C163.104 32.0156 163.643 31.862 164.023 31.5547C164.409 31.2474 164.604 30.7708 164.609 30.125V28.4531H164.5C164.286 28.8438 163.992 29.1797 163.617 29.4609C163.247 29.737 162.719 29.875 162.031 29.875C161.354 29.875 160.747 29.7109 160.211 29.3828C159.674 29.0547 159.253 28.5755 158.945 27.9453C158.638 27.3099 158.484 26.5521 158.484 25.6719C158.484 24.7917 158.638 24.0312 158.945 23.3906C159.253 22.7448 159.674 22.2526 160.211 21.9141C160.753 21.5755 161.365 21.4062 162.047 21.4062C162.531 21.4062 162.935 21.487 163.258 21.6484C163.586 21.8047 163.839 21.987 164.016 22.1953C164.193 22.3984 164.359 22.6302 164.516 22.8906H164.625V21.5156H166.25V30.1875C166.25 30.8906 166.086 31.4792 165.758 31.9531C165.435 32.4271 164.984 32.7786 164.406 33.0078C163.833 33.2422 163.172 33.3594 162.422 33.3594ZM160.188 25.7031C160.182 26.5573 160.372 27.237 160.758 27.7422C161.143 28.2422 161.693 28.4948 162.406 28.5C163.115 28.4948 163.661 28.2474 164.047 27.7578C164.432 27.2682 164.625 26.5833 164.625 25.7031C164.625 25.125 164.539 24.6198 164.367 24.1875C164.195 23.7552 163.943 23.4219 163.609 23.1875C163.276 22.9479 162.875 22.8281 162.406 22.8281C161.927 22.8281 161.521 22.9531 161.188 23.2031C160.854 23.4479 160.602 23.7891 160.43 24.2266C160.263 24.6589 160.182 25.151 160.188 25.7031ZM169.953 30H168.281V18.6875H169.953V30ZM175.641 30.1719C174.818 30.1719 174.102 29.9922 173.492 29.6328C172.883 29.2734 172.417 28.7656 172.094 28.1094C171.771 27.4531 171.609 26.6875 171.609 25.8125C171.609 24.9479 171.771 24.1823 172.094 23.5156C172.417 22.849 172.875 22.3307 173.469 21.9609C174.062 21.5911 174.75 21.4062 175.531 21.4062C176.214 21.4062 176.839 21.5547 177.406 21.8516C177.974 22.1484 178.43 22.6172 178.773 23.2578C179.122 23.8932 179.297 24.6979 179.297 25.6719V26.2656H173.266C173.281 26.7969 173.391 27.2526 173.594 27.6328C173.797 28.013 174.076 28.3021 174.43 28.5C174.784 28.6979 175.193 28.7969 175.656 28.7969C176.104 28.7969 176.484 28.7135 176.797 28.5469C177.115 28.375 177.349 28.151 177.5 27.875H179.188C179.062 28.3333 178.839 28.737 178.516 29.0859C178.193 29.4297 177.786 29.6979 177.297 29.8906C176.807 30.0781 176.255 30.1719 175.641 30.1719ZM177.656 25.0156C177.656 24.5885 177.568 24.2057 177.391 23.8672C177.219 23.5234 176.971 23.2578 176.648 23.0703C176.331 22.8776 175.964 22.7812 175.547 22.7812C175.115 22.7812 174.729 22.8828 174.391 23.0859C174.057 23.2839 173.794 23.5547 173.602 23.8984C173.409 24.2422 173.299 24.6146 173.273 25.0156H177.656ZM193.266 29.6562H180.453V28.4062H186.094V25.9531H182.016V21.5H190.234V19.5312H181.984V18.3125H191.703V22.6875H183.484V24.7344H192.031V25.9531H187.562V28.4062H193.266V29.6562ZM211 29.6562H198.188V28.4062H203.828V25.9531H199.75V21.5H207.969V19.5312H199.719V18.3125H209.438V22.6875H201.219V24.7344H209.766V25.9531H205.297V28.4062H211V29.6562ZM223.109 20.25C223.109 21.0677 223.099 21.776 223.078 22.375C223.062 22.9688 223.018 23.6589 222.945 24.4453C222.872 25.2318 222.755 26.0885 222.594 27.0156L221.078 26.875C221.25 26.0052 221.378 25.1849 221.461 24.4141C221.544 23.6432 221.594 22.9583 221.609 22.3594C221.63 21.7604 221.641 21.0573 221.641 20.25V19.9688H213.391V18.75H223.109V20.25ZM212.016 28.1094H224.781V29.3438H212.016V28.1094ZM237.453 27.5156H235.969V17.3438H237.453V27.5156ZM226.125 21.75C226.125 21.0885 226.289 20.4948 226.617 19.9688C226.945 19.4427 227.393 19.0312 227.961 18.7344C228.529 18.4323 229.161 18.2812 229.859 18.2812C230.557 18.2812 231.188 18.4323 231.75 18.7344C232.318 19.0312 232.763 19.4427 233.086 19.9688C233.414 20.4948 233.578 21.0885 233.578 21.75C233.578 22.4219 233.414 23.0234 233.086 23.5547C232.763 24.0807 232.318 24.4922 231.75 24.7891C231.188 25.0859 230.557 25.2344 229.859 25.2344C229.161 25.2344 228.529 25.0859 227.961 24.7891C227.393 24.4922 226.945 24.0807 226.617 23.5547C226.289 23.0234 226.125 22.4219 226.125 21.75ZM227.578 21.75C227.578 22.1823 227.674 22.5651 227.867 22.8984C228.065 23.2266 228.339 23.4818 228.688 23.6641C229.036 23.8464 229.427 23.9375 229.859 23.9375C230.286 23.9375 230.672 23.8464 231.016 23.6641C231.359 23.4818 231.63 23.2266 231.828 22.8984C232.026 22.5651 232.125 22.1823 232.125 21.75C232.125 21.3281 232.026 20.9531 231.828 20.625C231.63 20.2917 231.359 20.0339 231.016 19.8516C230.672 19.6693 230.286 19.5781 229.859 19.5781C229.427 19.5781 229.036 19.6693 228.688 19.8516C228.339 20.0339 228.065 20.2917 227.867 20.625C227.674 20.9531 227.578 21.3281 227.578 21.75ZM228.297 26.4844H229.797V29.8281H237.875V31.0312H228.297V26.4844Z" fill="#191B1C"/>
</svg>
