<svg width="69" height="19" viewBox="0 0 69 19" fill="none" xmlns="http://www.w3.org/2000/svg">
<path d="M7.362 16.098C7.65 16.134 8.028 16.152 8.442 16.152C10.512 16.152 13.788 15.774 15.066 15.306L15.552 17.718C13.428 18.294 10.8 18.564 8.442 18.564C7.398 18.564 6.408 18.51 5.544 18.402C2.466 18.024 1.764 15.414 2.448 12.786H11.142C11.268 12.588 11.268 12.318 11.268 11.994H2.304V9.672H14.688C14.688 10.536 14.598 12.534 14.49 13.29L14.22 15H5.796C5.796 15.522 5.958 15.936 7.362 16.098ZM14.724 6.414V8.988H11.304V7.836C10.008 8.628 7.704 9.168 6.462 9.168C4.464 9.168 2.16 8.808 1.206 6.792C0.18 4.614 0.972 2.274 1.44 0.852H4.86C4.806 1.158 4.086 2.814 4.086 4.02C4.086 6.252 5.526 6.576 6.93 6.576C8.73 6.576 10.224 5.946 11.304 4.434V0.833999H14.724V3.48H16.83V6.414H14.724ZM17.9453 2.49C19.7993 1.896 21.7253 1.482 23.3993 1.482C25.0733 1.482 26.4773 1.896 27.2333 2.976C29.6813 6.432 26.4953 12.228 20.0873 15.954L18.3413 13.362C20.5733 11.994 22.1033 10.698 23.0753 9.528C21.5453 9.906 19.7633 10.032 18.3053 10.176L17.9813 7.422C19.6553 7.26 21.7433 7.026 23.4173 6.648L23.6333 8.79C24.5873 7.368 24.6953 6.18 24.3173 5.37C24.0653 4.848 23.3813 4.65 22.4993 4.65C21.4373 4.65 20.0693 4.956 18.8093 5.37L17.9453 2.49ZM29.3753 17.43V0.833999H32.7953V17.43H29.3753ZM46.879 11.418C45.331 12.102 43.693 12.39 42.037 12.48V17.25H38.527V12.534H35.017V9.924H39.787C42.739 9.924 44.287 9.654 45.943 8.916L46.879 11.418ZM46.951 17.43V15.342H43.657V12.84H46.951V0.833999H50.371V17.43H46.951ZM40.399 1.698C40.687 0.905999 41.353 0.149999 42.271 0.149999C42.631 0.149999 42.973 0.257999 43.261 0.509999C43.711 0.887999 43.855 1.5 43.585 1.986C43.783 1.914 43.981 1.878 44.179 1.878C44.539 1.878 44.881 1.986 45.151 2.238C45.745 2.724 45.709 3.57 45.115 4.074C44.827 4.326 44.503 4.614 43.945 4.758C44.503 4.938 44.827 5.208 45.115 5.46C45.709 5.964 45.709 6.774 45.115 7.296C44.827 7.53 44.485 7.674 44.125 7.674C43.945 7.674 43.765 7.638 43.585 7.566C43.855 8.07 43.711 8.646 43.261 9.042C42.991 9.276 42.649 9.402 42.289 9.402C41.407 9.402 40.687 8.628 40.399 7.836C40.201 8.34 39.913 8.718 39.589 8.988C39.301 9.258 38.923 9.402 38.527 9.402C38.167 9.402 37.807 9.276 37.519 9.042C37.087 8.646 36.979 8.07 37.231 7.566C37.051 7.638 36.853 7.674 36.655 7.674C36.259 7.674 35.845 7.53 35.575 7.296C34.963 6.774 34.999 5.964 35.611 5.46C35.881 5.208 36.349 4.938 36.853 4.758C36.349 4.614 35.881 4.326 35.611 4.074C34.999 3.57 34.963 2.76 35.575 2.274C35.845 2.022 36.241 1.878 36.655 1.878C36.853 1.878 37.051 1.914 37.231 1.986C36.979 1.5 37.087 0.887999 37.519 0.509999C37.807 0.276 38.167 0.149999 38.527 0.149999C38.923 0.149999 39.301 0.293999 39.589 0.563999C39.913 0.815999 40.201 1.212 40.399 1.698ZM39.841 4.776L38.545 6.036L39.121 6.576L40.381 5.298L41.569 6.576L42.145 6L40.903 4.776L42.109 3.57L41.569 3.03L40.381 4.236L39.157 3.012L38.617 3.57L39.841 4.776ZM60.4683 18.24C56.7063 18.24 54.6363 16.62 54.6363 14.298C54.6363 11.976 56.5263 10.392 60.4683 10.392C64.2303 10.392 66.3003 11.976 66.3003 14.298C66.3003 16.62 64.2303 18.24 60.4683 18.24ZM66.2103 8.862V9.996H62.7903V8.538C61.5663 9.258 59.1723 9.87 57.9483 9.87C55.9143 9.87 53.6643 9.438 52.6923 7.422C51.5583 5.064 52.4583 2.454 52.9263 1.032H56.3463C56.0943 1.968 55.5723 3.264 55.5723 4.47C55.5723 6.702 57.0123 7.026 58.4163 7.026C60.1803 7.026 61.7283 6.432 62.7903 4.938V0.833999H66.2103V2.274H68.3163V4.902H66.2103V6.234H68.3343V8.862H66.2103ZM60.4683 15.522C61.4583 15.522 62.6103 15.198 62.6103 14.316C62.6103 13.434 61.4583 13.092 60.4683 13.092C59.4783 13.092 58.3263 13.416 58.3263 14.298C58.3263 15.18 59.4783 15.522 60.4683 15.522Z" fill="#00CC51"/>
</svg>
