<svg width="80" height="80" viewBox="0 0 80 80" fill="none" xmlns="http://www.w3.org/2000/svg">
<g clip-path="url(#clip0_287_2743)">
<path d="M0 6.43216C0 2.87978 2.87978 0 6.43216 0H73.5678C77.1202 0 80 2.87978 80 6.43216V73.5678C80 77.1202 77.1202 80 73.5678 80H6.43216C2.87978 80 0 77.1202 0 73.5678V6.43216Z" fill="white"/>
<rect x="-20.1006" width="120" height="80" fill="#E0E5EA"/>
<path d="M25.3332 26.6667C23.8598 26.6667 22.6665 27.86 22.6665 29.3334V50.6667C22.6665 52.14 23.8598 53.3334 25.3332 53.3334H54.6665C56.1398 53.3334 57.3332 52.14 57.3332 50.6667V29.3334C57.3332 27.86 56.1398 26.6667 54.6665 26.6667H25.3332ZM50.6665 30.6667C52.1398 30.6667 53.3332 31.86 53.3332 33.3334C53.3332 34.8067 52.1398 36 50.6665 36C49.1932 36 47.9998 34.8067 47.9998 33.3334C47.9998 31.86 49.1932 30.6667 50.6665 30.6667ZM26.6665 33.3334L33.2967 39.9636L34.6665 41.3334L36.2082 42.875C36.7708 43.4377 37.6794 43.4325 38.242 42.8698C38.806 42.3071 38.806 41.3921 38.242 40.8281L36.7056 39.2943L38.6665 37.3334L42.63 41.2969L45.5415 44.2084C46.1042 44.771 47.0127 44.7658 47.5754 44.2031C48.1394 43.6405 48.1394 42.7255 47.5754 42.1615L47.3722 41.961L49.3332 40L53.3332 44V49.3334H26.6665V33.3334Z" fill="#A6ABAF"/>
</g>
<defs>
<clipPath id="clip0_287_2743">
<path d="M0 6.43216C0 2.87978 2.87978 0 6.43216 0H73.5678C77.1202 0 80 2.87978 80 6.43216V73.5678C80 77.1202 77.1202 80 73.5678 80H6.43216C2.87978 80 0 77.1202 0 73.5678V6.43216Z" fill="white"/>
</clipPath>
</defs>
</svg>
